<?xml version="1.0" standalone="no"?>
<!DOCTYPE svg PUBLIC "-//W3C//DTD SVG 20010904//EN"
 "http://www.w3.org/TR/2001/REC-SVG-20010904/DTD/svg10.dtd">
<svg version="1.0" xmlns="http://www.w3.org/2000/svg"
 width="1279.000000pt" height="1302.000000pt" viewBox="0 0 1279.000000 1302.000000"
 preserveAspectRatio="xMidYMid meet">
<metadata>
Created by potrace 1.16, written by Peter Selinger 2001-2019
</metadata>
<g transform="translate(0.000000,1302.000000) scale(0.100000,-0.100000)"
fill="#000000" stroke="none">
<path d="M6145 13005 c-362 -67 -665 -235 -924 -513 -108 -115 -4304 -5152
-4407 -5290 -118 -157 -210 -338 -255 -499 -33 -118 -38 -339 -11 -454 94
-394 441 -646 961 -699 57 -5 249 -10 427 -10 l324 0 2 -2392 c3 -2248 4
-2397 21 -2453 66 -227 243 -403 462 -460 53 -13 444 -15 3655 -15 3989 0
3642 -6 3790 67 105 52 223 170 273 273 79 158 71 -96 74 2582 l3 2396 388 5
c313 3 405 7 482 22 269 49 456 136 612 284 117 109 191 240 230 400 27 114
22 335 -11 454 -45 163 -137 342 -259 505 -37 49 -1027 1243 -2201 2653 -1533
1841 -2169 2598 -2255 2684 -236 235 -482 371 -801 446 -120 28 -458 36 -580
14z m453 -725 c153 -39 322 -140 443 -266 43 -45 3809 -4563 4284 -5140 155
-187 227 -322 229 -428 1 -44 -2 -51 -38 -82 -48 -42 -121 -70 -233 -89 -70
-12 -208 -15 -774 -15 l-689 0 0 -2665 0 -2665 -3420 0 -3420 0 0 2665 0 2664
-722 4 c-692 3 -726 4 -800 24 -147 39 -213 89 -212 161 0 61 34 149 93 243
67 106 4362 5269 4461 5363 228 214 517 296 798 226z"/>
<path d="M6160 5579 c-639 -82 -1194 -483 -1469 -1060 -252 -529 -251 -1131 3
-1654 101 -208 222 -371 402 -545 745 -716 1953 -688 2670 63 649 679 711
1710 146 2459 -299 398 -745 660 -1243 733 -115 16 -395 19 -509 4z m479 -729
c318 -66 602 -269 771 -550 272 -453 208 -1027 -157 -1411 -529 -557 -1426
-472 -1844 174 -213 330 -246 742 -87 1104 169 388 534 655 959 702 106 12
246 4 358 -19z"/>
</g>
</svg>
