<?xml version="1.0" standalone="no"?>
<!DOCTYPE svg PUBLIC "-//W3C//DTD SVG 20010904//EN"
 "http://www.w3.org/TR/2001/REC-SVG-20010904/DTD/svg10.dtd">
<svg version="1.0" xmlns="http://www.w3.org/2000/svg"
 width="1167.000000pt" height="993.000000pt" viewBox="0 0 1167.000000 993.000000"
 preserveAspectRatio="xMidYMid meet">
<metadata>
Created by potrace 1.16, written by Peter Selinger 2001-2019
</metadata>
<g transform="translate(0.000000,993.000000) scale(0.100000,-0.100000)"
fill="#000000" stroke="none">
<path d="M1166 9864 c-423 -77 -770 -376 -906 -782 -65 -193 -60 110 -60
-4002 0 -4112 -5 -3809 60 -4002 137 -409 486 -708 914 -783 79 -13 575 -15
4626 -15 4051 0 4547 2 4626 15 428 75 777 374 914 783 65 193 60 -110 60
4002 0 4116 5 3809 -61 4004 -63 188 -164 344 -316 486 -141 132 -305 221
-510 278 l-98 27 -4585 2 c-3939 1 -4596 -1 -4664 -13z m9172 -811 c118 -40
199 -123 238 -244 14 -46 18 -105 21 -389 l3 -335 -2281 -1580 c-1254 -869
-2302 -1590 -2328 -1602 -101 -48 -250 -46 -350 5 -30 15 -1086 736 -2348
1602 l-2293 1575 3 335 c3 284 7 343 21 389 49 152 159 240 326 261 30 4 2051
7 4490 6 l4435 -1 63 -22z m-7241 -3387 c1123 -773 2067 -1422 2098 -1441 79
-47 191 -92 304 -122 132 -35 376 -43 519 -18 168 30 318 91 462 188 41 28
964 663 2050 1412 1086 749 1996 1376 2023 1394 l47 32 -2 -2853 c-3 -2737 -4
-2855 -21 -2907 -44 -128 -126 -209 -253 -248 -57 -17 -241 -18 -4524 -18
-4283 0 -4467 1 -4524 18 -127 39 -209 120 -253 248 -17 52 -18 170 -21 2907
l-2 2854 27 -20 c16 -10 947 -652 2070 -1426z"/>
</g>
</svg>
