<?xml version="1.0" standalone="no"?>
<!DOCTYPE svg PUBLIC "-//W3C//DTD SVG 20010904//EN"
 "http://www.w3.org/TR/2001/REC-SVG-20010904/DTD/svg10.dtd">
<svg version="1.0" xmlns="http://www.w3.org/2000/svg"
 width="1280.000000pt" height="1213.000000pt" viewBox="0 0 1280.000000 1213.000000"
 preserveAspectRatio="xMidYMid meet">
<metadata>
Created by potrace 1.16, written by Peter Selinger 2001-2019
</metadata>
<g transform="translate(0.000000,1213.000000) scale(0.100000,-0.100000)"
fill="#000000" stroke="none">
<path d="M6135 11229 c-354 -51 -640 -309 -736 -664 -19 -70 -23 -114 -27
-337 -2 -142 -5 -258 -6 -258 -1 0 -53 -18 -116 -41 -63 -22 -154 -53 -201
-69 -120 -41 -292 -119 -432 -196 -573 -316 -1037 -774 -1352 -1339 -138 -246
-236 -461 -290 -635 -35 -114 -118 -465 -134 -570 -25 -163 -31 -436 -31
-1445 0 -882 -3 -1082 -15 -1189 -29 -244 -94 -484 -192 -702 -27 -60 -235
-442 -463 -849 -227 -406 -425 -764 -439 -795 -24 -50 -26 -66 -26 -180 0
-120 1 -128 32 -193 62 -131 189 -232 322 -257 34 -6 576 -10 1507 -10 l1454
0 0 -59 c0 -32 7 -98 15 -147 45 -261 161 -488 347 -680 187 -193 409 -315
678 -370 105 -22 352 -25 460 -5 521 93 938 499 1039 1009 11 53 22 132 26
174 l7 78 1481 2 1482 3 59 22 c163 62 272 216 284 404 3 53 -1 93 -12 133
-10 34 -182 352 -441 816 -233 417 -435 781 -450 809 -89 176 -169 424 -212
656 l-26 140 -7 1185 c-6 1136 -7 1192 -28 1353 -78 598 -321 1172 -716 1687
-44 58 -96 123 -116 145 -97 110 -285 296 -369 364 -145 118 -261 208 -316
245 -142 95 -267 172 -363 223 -59 31 -109 60 -112 63 -13 16 -336 151 -427
179 l-103 32 0 238 c0 246 -6 311 -42 421 -47 147 -125 267 -246 381 -196 184
-470 268 -747 228z m206 -519 c119 -23 224 -105 277 -218 26 -54 27 -66 30
-246 4 -180 3 -189 -14 -182 -47 18 -382 29 -539 17 -88 -6 -171 -14 -183 -18
l-22 -5 0 154 c0 169 12 238 57 320 46 85 133 148 238 174 64 16 90 16 156 4z
m314 -1184 c161 -24 277 -52 485 -117 244 -76 280 -90 414 -156 301 -150 636
-401 850 -639 276 -307 500 -671 631 -1029 26 -71 54 -144 62 -162 43 -101
102 -414 113 -603 5 -85 9 -589 10 -1120 0 -534 5 -1032 10 -1115 24 -348 103
-674 243 -998 61 -140 71 -160 510 -967 l323 -595 -4030 -3 c-2216 -1 -4031 0
-4033 1 -2 2 168 312 378 688 210 376 402 727 427 779 139 297 229 612 266
940 14 114 16 304 16 1204 0 998 1 1082 20 1280 12 116 25 222 30 236 5 14 12
41 15 60 16 88 96 350 137 450 83 203 256 504 398 694 277 372 620 665 1025
877 260 136 671 262 970 298 50 6 101 13 115 15 57 10 520 -4 615 -18z m375
-8074 c0 -181 -128 -419 -292 -545 -213 -163 -476 -206 -720 -117 -276 101
-478 358 -504 641 l-7 69 762 0 761 0 0 -48z"/>
</g>
</svg>
