<svg fill="#000000" xmlns="http://www.w3.org/2000/svg"  viewBox="0 0 26 26" width="26px" height="26px"><path d="M16.57 15.395H18.852V20.028H16.57z" transform="rotate(-45.001 17.71 17.712)"/><path d="M25.329 21.885c.713.713.713 1.87 0 2.584l-.861.86c-.714.714-1.87.714-2.583 0l-4.614-4.615c-.714-.714-.714-1.87-.001-2.583l.861-.861c.713-.713 1.871-.713 2.584 0L25.329 21.885zM10 .188C4.58.188.188 4.58.188 10S4.58 19.813 10 19.813 19.813 15.42 19.813 10 15.42.188 10 .188zM10 17.997c-4.418 0-7.998-3.579-7.998-7.997S5.582 2.003 10 2.003 17.998 5.582 17.998 10 14.418 17.997 10 17.997z"/><path d="M12.012,14.857c-3.914,0-7.089-3.174-7.089-7.089c0-0.104,0.011-0.206,0.016-0.31 c-0.517,0.836-0.82,1.819-0.82,2.873c0,3.027,2.454,5.48,5.48,5.48c1.169,0,2.249-0.368,3.14-0.991 C12.5,14.846,12.257,14.857,12.012,14.857z"/></svg>